<svg xmlns="http://www.w3.org/2000/svg" viewBox="0 0 72 72" width="72" height="72" preserveAspectRatio="xMidYMid meet" style="width: 100%; height: 100%; transform: translate3d(0px, 0px, 0px);"><defs><clipPath id="__lottie_element_2"><rect width="72" height="72" x="0" y="0"></rect></clipPath></defs><g clip-path="url(#__lottie_element_2)"><g transform="matrix(1,0,0,1,36,36)" opacity="1" style="display: block;"><path stroke-linecap="butt" stroke-linejoin="miter" fill-opacity="0" stroke-miterlimit="4" stroke="rgb(255,255,255)" stroke-opacity="1" stroke-width="2" d=" M18.323999404907227,4.427999973297119 C18.323999404907227,4.427999973297119 18.28700065612793,14.213000297546387 18.28700065612793,14.213000297546387 C18.28700065612793,24.312999725341797 10.100000381469727,32.5 0,32.5 C0,32.5 0,32.5 0,32.5 C-10.100000381469727,32.5 -18.28700065612793,24.312999725341797 -18.28700065612793,14.213000297546387 C-18.28700065612793,14.213000297546387 -18.28700065612793,-14.213000297546387 -18.28700065612793,-14.213000297546387 C-18.28700065612793,-24.312999725341797 -10.100000381469727,-32.5 0,-32.5 C0,-32.5 0,-32.5 0,-32.5 C0.6899999976158142,-32.5 1.3700000047683716,-32.46200180053711 2.0399999618530273,-32.38800048828125"></path></g><g style="display: none;" transform="matrix(1,0,0,1,36,36)" opacity="1"><path stroke-linecap="butt" stroke-linejoin="miter" fill-opacity="0" stroke-miterlimit="4" stroke="rgb(255,255,255)" stroke-opacity="1" stroke-width="2" d="M0 0"></path></g><g transform="matrix(1,0,0,1,36,36)" opacity="1" style="display: block;"><path stroke-linecap="butt" stroke-linejoin="miter" fill-opacity="0" stroke-miterlimit="4" stroke="rgb(255,255,255)" stroke-opacity="1" stroke-width="2" d=" M-5.171000003814697,-31.759000778198242 C-3.5309998989105225,-32.24100112915039 -1.7960000038146973,-32.5 0,-32.5 C0,-32.5 0,-32.5 0,-32.5 C8.399999618530273,-32.5 15.47700023651123,-26.836999893188477 17.621000289916992,-19.121000289916992"></path></g><g style="display: none;" transform="matrix(1,0,0,1,36,36)" opacity="1"><path stroke-linecap="butt" stroke-linejoin="miter" fill-opacity="0" stroke-miterlimit="4" stroke="rgb(255,255,255)" stroke-opacity="1" stroke-width="2" d="M0 0"></path></g><g transform="matrix(1,0,0,1,36,51)" opacity="1" style="display: none;"><path stroke-linecap="butt" stroke-linejoin="miter" fill-opacity="0" stroke-miterlimit="4" stroke="rgb(255,255,255)" stroke-opacity="1" stroke-width="2" d="M0 0"></path></g><g transform="matrix(1,0,0,1,54,59.25)" opacity="1" style="display: none;"><path stroke-linecap="butt" stroke-linejoin="miter" fill-opacity="0" stroke-miterlimit="4" stroke="rgb(255,255,255)" stroke-opacity="1" stroke-width="2" d="M0 0"></path></g></g></svg>