<?xml version="1.0" encoding="UTF-8"?>
<svg id="Layer_1" xmlns="http://www.w3.org/2000/svg" viewBox="0 0 533.3333333333 124.1938534279">
  <defs>
  </defs>
  <path class="cls-1" d="M49.7089882015,76.7314806518h-16.9218435086v-30.6465417098c0-.5242639355-.1314663076-.9175419519-.3935982753-1.180474567-.2629326152-.2622920972-.6395571651-.3935982753-1.1314749445-.3935982753-.4595716234,0-.8200230952.1313061781-1.0821550629.3935982753-.2629326152.2629326152-.3935982753.6562106315-.3935982753,1.180474567v31.7780166543c0,.4919177794.1391525229.8778298394.4182582161,1.1558146263.2781449163.2792658227.6470832509.4182582161,1.1068150037.4182582161h18.3975968468c.4919177794,0,.860856114-.1146527116,1.1068150037-.3442783938.2459588897-.2289851642.3689383346-.573583817.3689383346-1.0331554404,0-.4256241724-.1229794449-.7538896177-.3689383346-.9838355588-.2459588897-.2289851643-.6148972243-.3442783938-1.1068150037-.3442783938Z"/>
  <path class="cls-1" d="M73.1237620877,45.8389800522c-.1967991377-.4919177794-.4512448901-.8438823885-.7625366099-1.0574951222-.3120923672-.2129722157-.6640569763-.319938712-1.0576552517-.319938712-.3281053158,0-.656370761.1069664963-.9838355588.319938712-.3281053158.2136127336-.607211009.5655773427-.8361961732,1.0574951222l-13.8228575759,31.7780166543c-.1646131111.3935982753-.2382726744.7548503946-.2214590784,1.0821550629.016173078.3282654452.1476393856.5825510682.3935982753.7625366099.2459588897.1796652827.5817504208.2706188305,1.0083353701.2706188305.3606116013,0,.6802300544-.1069664963.9593357476-.319938712.2781449163-.2129722157.5164175907-.5655773427.7132167284-1.0574951222l3.473929123-8.165963242h18.6319463488l3.4738490582,8.165963242c.1967991377.4265849494.4342711647.7625366099.7133768579,1.0084954996.2781449163.2459588897.6470832509.3689383346,1.1068150037.3689383346.4257843019,0,.7455628844-.0909535478.9591756181-.2706188305.2129722157-.1799855417.3274647978-.4342711647.3442783938-.7625366099.016173078-.3273046683-.0736595633-.6885567876-.270458701-1.0821550629l-13.8228575759-31.7780166543ZM71.2544104741,48.4955282165h.0983195041l8.1594779979,19.0861536345h-16.3693967836l8.1115992817-19.0861536345Z"/>
  <path class="cls-1" d="M123.9381321065,44.461546218c-.4265849493,0-.7463635319.0823065555-.9593357476.2459588897-.2136127336.1646131111-.4349116826.4265849493-.6640569763.7871965507l-13.2841819867,25.3990184056-13.3776976062-25.3990184056c-.1967991377-.3606116013-.4104118713-.6225834396-.6395571651-.7871965507-.2297858117-.1636523342-.5580512569-.2459588897-.9838355588-.2459588897-.3934381458,0-.7132167284.1229794448-.9591756181.3689383346s-.3689383346.6148972243-.3689383346,1.1068150037v32.3192543153c0,.4595716233.1229794448.8198629657.3689383346,1.0821550629.2459588897.2619718383.5817504208.3935982753,1.0083353701.3935982753.4589311054,0,.8032094992-.1316264371,1.0331554404-.3935982753.2289851642-.2622920972.3442783938-.6225834396.3442783938-1.0821550629v-27.6911919257l12.1503051,22.821013754c.1638124637.2952787712.3521247386.5335514456.5657374722.7132167284.2129722157.1806260596.5165777202.2706188305.910015866.2706188305.3606116013,0,.639557165-.0813457786.8363563027-.2459588897.1967991377-.1636523342.3766245499-.4096112239.5410775315-.7378766691l12.0028258438-22.751597622v27.6217757937c0,.4595716233.1229794448.8198629657.3689383346,1.0821550629.2459588897.2619718383.5979234988.3935982753,1.0576552517.3935982753.4587709759,0,.8032094992-.1316264371,1.0329953109-.3935982753.2289851643-.2622920972.3442783938-.6225834396.3442783938-1.0821550629v-32.3192543153c0-.4919177794-.1229794449-.860856114-.3689383346-1.1068150037s-.5657374722-.3689383346-.9591756181-.3689383346Z"/>
  <path class="cls-1" d="M151.1422101373,61.6968431944c1.494808747-.5285073669,2.7329299288-1.3371612686,3.7127622505-2.4284437122,1.2951272786-1.4427666643,1.9431713064-3.2467854478,1.9431713064-5.4110955736,0-1.9676711177-.4427580274-3.6234099977-1.3282740821-4.9684976758-.8853559253-1.3441269012-2.1482971773-2.3686353494-3.7877028498-3.0744861214-1.6402063199-.7045697362-3.6571973191-1.0574951222-6.0506527387-1.0574951222h-11.5600678164c-.5249044534,0-.9346758068.1476393856-1.2297944486.4425978979-.2951186418.2952787712-.4427580274.7218637206-.4427580274,1.2791143301v31.2367789934c0,.5578911275.1476393856.9838355588.4427580274,1.2791143301.2951186418.2949585123.7048899951.4425978979,1.2297944486.4425978979h12.1996249815c3.6070767901,0,6.3949311325-.8032094992,8.3626022502-2.4102690156,1.9676711177-1.6064189984,2.9515066765-3.9516754429,2.9515066765-7.0344882975,0-2.4595888971-.7133768578-4.4349462301-2.1398103146-5.9276732938-1.1164227728-1.1675040787-2.5539852288-1.952939205-4.3031596636-2.3677546372ZM135.3504004078,47.3147333905h9.936835222c2.7547075389,0,4.8530443167.5658976017,6.2964514989,1.6970522872,1.4427666643,1.1314749445,2.1644702554,2.7795276091,2.1644702554,4.943837735,0,2.1646303848-.7217035911,3.8123627905-2.1644702554,4.943837735-1.4434071822,1.1314749445-3.54174396,1.6970522872-6.2964514989,1.6970522872h-9.936835222v-13.2817800444ZM152.4200434315,75.1820677502c-1.4104205082,1.1311546855-3.5419040895,1.6970522872-6.3949311325,1.6970522872h-10.6747118912v-13.7246982013h10.6747118912c2.853027043,0,4.9845106243.5582113864,6.3949311325,1.6727126054,1.4096198608,1.1151417369,2.1151503738,2.8531871724,2.1151503738,5.2141363065,0,2.2959365629-.7055305131,4.0093220577-2.1151503738,5.1407970022Z"/>
  <path class="cls-1" d="M186.8538076027,46.503197158c-2.328923237-1.4267537157-5.0998038539-2.1399704441-8.3134424982-2.1399704441-2.394256067,0-4.5502394597.4105720008-6.4687508253,1.2297944485-1.9185113656.8201832247-3.5502308228,1.9923310585-4.8945178535,3.5174042783-1.3450876781,1.5247529608-2.3697562558,3.3780916259-3.0744861214,5.5584147003-.7056906425,2.1816041103-1.0576552517,4.6488792227-1.0576552517,7.4034266321,0,3.6403837231.6310703023,6.7885294078,1.8938514249,9.4447573131,1.2621406046,2.6565481643,3.0575123959,4.7065258375,5.3864356329,6.1489722428,2.328282719,1.4437274412,5.0668171798,2.1646303849,8.2151229941,2.1646303849,2.3934554196,0,4.5502394597-.4096112239,6.4687508253-1.2297944486,1.9183512362-.8195427067,3.5494301754-2.0000172738,4.8945178535-3.54174396,1.3442870307-1.5410861684,2.3772823416-3.410437782,3.0991460622-5.6080548408.7209029437-2.1966562819,1.0821550629-4.6732189045,1.0821550629-7.4277663139,0-3.6403837231-.623384087-6.7802026746-1.8693516136-9.4204176313-1.2466080445-2.6392541798-3.0336531026-4.6732189045-5.3617756921-6.0996523612ZM189.4363759447,70.1889101337c-.9678226103,2.2306037329-2.3697562558,3.9353422354-4.2059610659,5.1161370614-1.8370054575,1.180474567-4.066808543,1.7707118505-6.6900497743,1.7707118505-3.8700094053,0-6.8868489119-1.3197872194-9.0513191673-3.9600021761-2.1644702554-2.6392541798-3.2466253183-6.3209513102-3.2466253183-11.0434900963,0-3.1481456847.4834309167-5.8367197461,1.4510933975-8.067323479.9670219629-2.2299632149,2.3689556083-3.9353422354,4.2059610659-5.1161370614,1.8362048101-1.180474567,4.0498348175-1.7707118505,6.6408900222-1.7707118505,3.9353422354,0,6.9766815533,1.3034540119,9.1249787306,3.9106822946,2.1476566594,2.6072282827,3.222125507,6.2889254131,3.222125507,11.0434900963,0,3.1814526177-.4842315641,5.8870004045-1.4510933975,8.1166433605Z"/>
  <path class="cls-1" d="M226.108109805,44.461546218c-.4919177794,0-.8691828472.1229794448-1.131314815.3689383346-.2629326152.2459588897-.3935982753.6318709497-.3935982753,1.1561348852v19.6767111769c0,3.8370227313-.8853559253,6.698536637-2.6563880348,8.5839011991-1.77087198,1.8863253391-4.3949138587,2.8285272317-7.8706844708,2.8285272317-3.443424456,0-6.0589794719-.9422018926-7.84602453-2.8285272317-1.7878457055-1.8853645622-2.6808878461-4.7468784678-2.6808878461-8.5839011991v-19.6767111769c0-.5242639355-.1314663076-.9101759955-.3935982753-1.1561348852-.2629326152-.2459588897-.639557165-.3689383346-1.1314749445-.3689383346-.4595716234,0-.8200230952.1229794448-1.0821550629.3689383346-.2629326152.2459588897-.3935982753.6318709497-.3935982753,1.1561348852v19.9226700666c0,2.2629498889.2867919085,4.2636076806.860856114,6.0013328572.5734236875,1.7386859534,1.4265935862,3.1974655662,2.5580685307,4.3782603922,1.131314815,1.180474567,2.5494215385,2.0659906218,4.2551208179,2.6562279053,1.7047385025.5902372835,3.6562365422.8855160548,5.8536934715.8855160548,2.9515066765,0,5.4357555144-.5242639355,7.4525863842-1.5740728424,2.0168308697-1.0491683889,3.5334172268-2.614914498,4.5502394597-4.6978788453,1.0161817149-2.0823238293,1.5249130903-4.6319054973,1.5249130903-7.6493855218v-19.9226700666c0-.5242639355-.1313061781-.9101759955-.3934381459-1.1561348852-.2629326152-.2459588897-.623384087-.3689383346-1.0823151924-.3689383346Z"/>
  <path class="cls-1" d="M255.5248570663,67.8276407406c-.7546902651-1.4757533383-1.5987327831-2.5409346758-2.5334085899-3.1974655663-.3705396294-.2598901549-.7666999765-.466216997-1.1862392285-.6232239575,1.0380393897-.1884724044,1.9913702816-.4722218527,2.8587917044-.8525293807,1.721712228-.7538896177,3.0253263694-1.8607046214,3.9108424241-3.3204450111.8853559253-1.4587796128,1.3281139526-3.2051517815,1.3281139526-5.2387962473,0-3.1481456847-.9838355588-5.5747479078-2.9515066765-7.2804471872-1.9676711177-1.7047385025-4.7885121341-2.5579084012-8.4609217543-2.5579084012h-11.5600678164c-.4597317528,0-.8286700874.1313061781-1.1068150037.3935982753-.2791056932.2629326152-.4182582161.6562106315-.4182582161,1.180474567v31.8270162769c0,.4919177794.1306656602.8778298394.3935982753,1.1561348852.2621319678.2783050458.6225834396.4182582161,1.0821550629.4182582161.5242639355,0,.9101759955-.1399531703,1.1561348852-.4182582161s.3689383346-.6642171058.3689383346-1.1561348852v-13.7243779423h7.0343281681c1.77087198,0,3.1806519703.254285623,4.2304608771.7625366099,1.0491683889.5088915049,2.0000172738,1.5494129016,2.8531871724,3.1234857439l5.5094150777,10.2812737453c.1967991377.3612521193.4342711647.639557165.7133768579.8361961732.2781449163.1966390082.6310703023.2952787712,1.0576552517.2952787712.3604514718,0,.6555701136-.1069664963.8853559253-.319938712.2291452937-.2129722157.3521247386-.4919177794.3690984641-.8361961732.0160129485-.3442783938-.0909535478-.6962430029-.319938712-1.0574951222l-5.214296436-9.6910364618ZM238.4062144201,61.875627765v-14.511574493h9.6907162028c2.9185200025,0,5.1074900692.6148972243,6.5670703294,1.8446916728,1.4589397423,1.2297944486,2.1891301961,3.0251662399,2.1891301961,5.3864356329,0,2.394256067-.7301904538,4.2059610659-2.1891301961,5.4357555144-1.4595802602,1.2297944486-3.6485503269,1.8446916728-6.5670703294,1.8446916728h-9.6907162028Z"/>
  <path class="cls-1" d="M293.6976447237,44.461546218c-.4598918823,0-.8118564914.1229794448-1.0578153811.3689383346s-.3689383346.6148972243-.3689383346,1.1068150037v28.3860738279l-21.496742909-28.9269912299c-.2299459412-.3606116013-.4425978979-.606570491-.6395571651-.7378766691-.1966390082-.1306656602-.5088915049-.1969592672-.9345156773-.1969592672-.3935982753,0-.7055305131.1316264371-.9348359363.3935982753-.2296256822.2629326152-.3442783938.6565308905-.3442783938,1.180794826v32.1712946707c0,.4919177794.1229794449.8691828472.3689383346,1.1314749445.2459588897.2619718383.5979234988.3935982753,1.0578153812.3935982753.4256241724,0,.7622163509-.1316264371,1.0081752406-.3935982753.2459588897-.2622920972.3689383346-.639557165.3689383346-1.1314749445v-28.4000050932l21.497063168,28.9902423767c.2619718383.3282654453.507930728.5658976017.7378766691.7132167284.2289851642.1476393856.5239436765.2216192079.8851957958.2216192079.3935982753,0,.6965632619-.1316264371.9101759955-.3935982753.2129722157-.2622920972.319618453-.639557165.319618453-1.1314749445v-32.2699344337c0-.4919177794-.1229794449-.860856114-.3689383346-1.1068150037s-.5825510682-.3689383346-1.0081752406-.3689383346Z"/>
  <path class="cls-1" d="M323.4087099793,47.364053272c.4589311054,0,.8032094992-.1060057194,1.0331554404-.319938712.2289851642-.2126519567.3442783938-.5486036173.3442783938-1.0081752406,0-.3935982753-.1152932295-.7048899951-.3442783938-.9348359363-.2299459412-.2289851643-.574224335-.3442783938-1.0331554404-.3442783938h-18.594235855c-.5252247124,0-.9348359363.1476393856-1.2297944485.4425978979-.2952787713.2952787712-.4429181569.7218637206-.4429181569,1.2791143301v31.2367789934c0,.5578911275.1476393856.9838355588.4429181569,1.2791143301.2949585123.2949585123.7045697362.4425978979,1.2297944485.4425978979h18.594235855c.4589311054,0,.8032094992-.1146527116,1.0331554404-.3442783938.2289851642-.2289851642.3442783938-.5572506095.3442783938-.9838355588,0-.4259444314-.1152932295-.7455628844-.3442783938-.9591756181-.2299459412-.2129722157-.574224335-.319938712-1.0331554404-.319938712h-17.3154417839v-13.6753783198h16.3316062251c.4589311054,0,.8032094992-.1143324526,1.0331554404-.3442783938.2289851642-.2289851642.3442783938-.5572506095.3442783938-.9838355588,0-.4256241724-.1152932296-.7455628844-.3442783938-.9591756181-.2299459412-.2129722157-.574224335-.319618453-1.0331554404-.319618453h-16.3316062251v-13.1834605403h17.3154417839Z"/>
  <path class="cls-1" d="M370.5338567819,44.461546218c-.4919177794,0-.8691828472.1316264371-1.1311546855.3935982753-.2629326152.2629326152-.3935982753.6565308905-.3935982753,1.180794826v14.4622546115h-22.136300074v-14.4622546115c0-.5242639355-.1316264371-.9178622108-.3935982753-1.180794826-.2629326152-.2619718383-.6395571651-.3935982753-1.1314749445-.3935982753-.4595716233,0-.8201832247.1316264371-1.0821550629.3935982753-.2629326152.2629326152-.3935982753.6565308905-.3935982753,1.180794826v32.1219747892c0,.4919177794.1306656602.8778298394.3935982753,1.1561348852.2619718383.2783050458.6225834396.4182582161,1.0821550629.4182582161.5242639355,0,.9101759955-.1399531703,1.1561348852-.4182582161s.3689383346-.6642171058.3689383346-1.1561348852v-14.9541723909h22.136300074v14.9541723909c0,.4919177794.1306656602.8778298394.3935982753,1.1561348852.2619718383.2783050458.6392369061.4182582161,1.1311546855.4182582161.4589311054,0,.8195427067-.1399531703,1.0824753219-.4182582161.2619718383-.2783050458.3932780164-.6642171058.3932780164-1.1561348852v-32.1219747892c0-.5242639355-.1313061781-.9178622108-.3932780164-1.180794826-.2629326152-.2619718383-.6235442165-.3935982753-1.0824753219-.3935982753Z"/>
  <path class="cls-1" d="M402.5085124444,46.503197158c-2.328923237-1.4267537157-5.0998038539-2.1399704441-8.3136026276-2.1399704441-2.394256067,0-4.5502394597.4105720008-6.4685906958,1.2297944485-1.9183512362.8201832247-3.5503909523,1.9923310585-4.8945178535,3.5174042783-1.3450876781,1.5247529608-2.3695961263,3.3780916259-3.0744861214,5.5584147003-.7055305131,2.1816041103-1.0578153811,4.6488792227-1.0578153811,7.4034266321,0,3.6403837231.6312304318,6.7885294078,1.8940115544,9.4447573131,1.2621406046,2.6565481643,3.0575123959,4.7065258375,5.3864356329,6.1489722428,2.328282719,1.4437274412,5.0668171799,2.1646303849,8.2149628646,2.1646303849,2.3936155491,0,4.5502394597-.4096112239,6.4689109548-1.2297944486,1.9183512362-.8195427067,3.5494301754-2.0000172738,4.8945178535-3.54174396,1.3444471602-1.5410861684,2.3772823416-3.410437782,3.0991460622-5.6080548408.7209029437-2.1966562819,1.0821550629-4.6732189045,1.0821550629-7.4277663139,0-3.6403837231-.6232239575-6.7802026746-1.8693516136-9.4204176313-1.246768174-2.6392541798-3.0338132321-4.6732189045-5.3617756921-6.0996523612ZM405.0910807864,70.1889101337c-.9678226103,2.2306037329-2.3695961263,3.9353422354-4.2059610659,5.1161370614-1.8370054575,1.180474567-4.0666484135,1.7707118505-6.6902099037,1.7707118505-3.8700094053,0-6.8868489119-1.3197872194-9.0511590378-3.9600021761-2.1643101259-2.6392541798-3.2467854478-6.3209513102-3.2467854478-11.0434900963,0-3.1481456847.4835910462-5.8367197461,1.4514136565-8.067323479.9668618334-2.2299632149,2.3686353494-3.9353422354,4.2056408069-5.1161370614,1.8363649396-1.180474567,4.049994947-1.7707118505,6.6408900222-1.7707118505,3.9353422354,0,6.9768416828,1.3034540119,9.1251388601,3.9106822946,2.1476566594,2.6072282827,3.222125507,6.2889254131,3.222125507,11.0434900963,0,3.1814526177-.4842315641,5.8870004045-1.4510933975,8.1166433605Z"/>
  <path class="cls-1" d="M441.7626545172,44.461546218c-.4919177794,0-.8691828472.1229794448-1.1314749445.3689383346-.2626123562.2459588897-.3932780164.6318709497-.3932780164,1.1561348852v19.6767111769c0,3.8370227313-.8855160548,6.698536637-2.6565481643,8.5839011991-1.7707118505,1.8863253391-4.3949138587,2.8285272317-7.8706844708,2.8285272317-3.443424456,0-6.0589794719-.9422018926-7.84602453-2.8285272317-1.787685576-1.8853645622-2.6808878461-4.7468784678-2.6808878461-8.5839011991v-19.6767111769c0-.5242639355-.1316264371-.9101759955-.3935982753-1.1561348852-.2629326152-.2459588897-.639557165-.3689383346-1.1314749445-.3689383346-.4595716233,0-.8201832247.1229794448-1.0821550629.3689383346-.2629326152.2459588897-.3935982753.6318709497-.3935982753,1.1561348852v19.9226700666c0,2.2629498889.286631779,4.2636076806.860856114,6.0013328572.573583817,1.7386859534,1.4267537157,3.1974655662,2.5579084012,4.3782603922,1.1314749445,1.180474567,2.549581668,2.0659906218,4.2552809474,2.6562279053,1.7047385025.5902372835,3.6563966717.8855160548,5.8536934715.8855160548,2.9515066765,0,5.4357555144-.5242639355,7.4527465137-1.5740728424,2.0166707402-1.0491683889,3.5330969678-2.614914498,4.5502394597-4.6978788453,1.0158614559-2.0823238293,1.5247529608-4.6319054973,1.5247529608-7.6493855218v-19.9226700666c0-.5242639355-.1313061781-.9101759955-.3935982753-1.1561348852-.2626123562-.2459588897-.6232239575-.3689383346-1.0821550629-.3689383346Z"/>
  <path class="cls-1" d="M472.9011140065,64.7531546192c-1.6073797753-1.3604601087-4.0669686725-2.3856090748-7.3787666913-3.0744861214l-5.0178175573-1.0328351814c-2.328923237-.4589311054-4.017328532-1.1968077746-5.0664969209-2.2136300074-1.0501291658-1.0161817149-1.5743931013-2.3772823416-1.5743931013-4.082981621,0-1.4757533383.3766245499-2.7548676684,1.1314749445-3.8370227313.7542098767-1.0821550629,1.8117049988-1.9183512362,3.1728056255-2.5085885197,1.3604601087-.5905575425,2.9591928918-.8855160547,4.7961983494-.8855160547,1.8033782656,0,3.4511106713.254285623,4.943837735.7625366099,1.4920865458.5085712459,2.9268467358,1.3204277373,4.30428057,2.4349289563.3276249273.2629326152.639557165.38591206.9348359363.3689383346.2949585123-.0163332075.540917402-.1060057194.7378766691-.2706188305.1966390082-.1636523342.3442783938-.3849512831.4425978979-.6642171058.0983195041-.2779847868.0983195041-.5732635581,0-.8851957958-.0983195041-.3112917198-.2952787712-.5819105503-.5902372835-.8118564914-1.4757533383-1.2787940711-3.1074727954-2.2136300074-4.8945178535-2.8038672909-1.788005835-.5902372835-3.7470299605-.8855160547-5.8786736713-.8855160547-1.8036985246,0-3.4517511892.2382726744-4.943517476.7132167284-1.4927270637.4759048309-2.7795276091,1.1561348852-3.8616826721,2.04165094-1.0821550629.8855160547-1.9183512362,1.9430111769-2.5089087787,3.1728056255-.5902372835,1.2297944486-.8851957958,2.5995420674-.8851957958,4.1076415618,0,2.4595888971.7538896177,4.4272600148,2.26262963,5.9030133531,1.5080994943,1.4757533383,3.8200490058,2.5255622451,6.9361687935,3.1481456847l4.9681774168,1.0331554404c2.5902545573.5249044534,4.4519199556,1.2464479151,5.5833949,2.1643101259,1.1314749445.9185027288,1.6970522872,2.1976170589,1.6970522872,3.8370227313,0,1.9676711177-.7791900764,3.5587176855-2.3366094523,4.7715384086-1.5580598938,1.2137815-3.8946693461,1.8200317321-7.0098283568,1.8200317321-2.2306037329,0-4.1896278584-.2619718383-5.8783534123-.7868762917-1.6893660719-.5242639355-3.288098855-1.3444471602-4.7961983494-2.4595888971-.3282654453-.2293054232-.6395571651-.3359516606-.9345156773-.319938712-.2952787712.0169737255-.5495643942.1229794449-.7625366099.319938712-.2136127336.1966390082-.3612521193.4349116826-.4429181569.7132167284-.0819862966.2789455637-.065973348.574224335.0493198815.8855160548.1146527116.3119322377.3359516606.5825510682.6642171058.8115362325,1.0158614559.7871965507,2.1559833926,1.4510933975,3.4187645152,1.9923310585,1.2621406046.540917402,2.6315679645.9431626695,4.1073213028,1.2051345078s3.0008265581.3935982753,4.5748994004.3935982753c1.9346844437,0,3.6647234049-.2212989489,5.1897966247-.6642171058,1.5250732198-.4425978979,2.8285272317-1.0898412782,3.9106822946-1.9430111769,1.0821550629-.8525293807,1.9100245029-1.8607046214,2.4842488379-3.0251662399.573263558-1.1638211005.860856114-2.4512621639.860856114-3.8616826721,0-2.361269393-.8038500172-4.2219740144-2.4102690156-5.5833949Z"/>
  <path class="cls-1" d="M502.1695813643,76.8298001559h-17.3154417839v-13.6753783198h16.3316062251c.4589311054,0,.8032094992-.1143324526,1.0331554404-.3442783938.2289851642-.2289851642.3442783938-.5572506095.3442783938-.9838355588,0-.4256241724-.1152932296-.7455628844-.3442783938-.9591756181-.2299459412-.2129722157-.574224335-.319618453-1.0331554404-.319618453h-16.3316062251v-13.1834605403h17.3154417839c.4589311054,0,.8032094992-.1060057194,1.0331554404-.319938712.2289851642-.2126519567.3442783938-.5486036173.3442783938-1.0081752406,0-.3935982753-.1152932296-.7048899951-.3442783938-.9348359363-.2299459412-.2289851643-.574224335-.3442783938-1.0331554404-.3442783938h-18.594235855c-.5252247124,0-.9348359363.1476393856-1.2297944486.4425978979-.2952787712.2952787712-.4429181569.7218637206-.4429181569,1.2791143301v31.2367789934c0,.5578911275.1476393856.9838355588.4429181569,1.2791143301.2949585123.2949585123.7045697362.4425978979,1.2297944486.4425978979h18.594235855c.4589311054,0,.8032094992-.1146527116,1.0331554404-.3442783938.2289851642-.2289851642.3442783938-.5572506095.3442783938-.9838355588,0-.4259444314-.1152932296-.7455628844-.3442783938-.9591756181-.2299459412-.2129722157-.574224335-.319938712-1.0331554404-.319938712Z"/>
</svg>